HIERARCHY
ROOT Hips
{
    OFFSET 0.000000 0.000000 0.000000
    CHANNELS 6 Xposition Yposition Zposition Zrotation Yrotation Xrotation
    JOINT Chest
    {
        OFFSET 0.000000 1.634758 -0.000000
        CHANNELS 3 Zrotation Yrotation Xrotation
        JOINT Chest2
        {
            OFFSET 0.000000 2.197341 0.000000
            CHANNELS 3 Zrotation Yrotation Xrotation
            JOINT Neck
            {
                OFFSET 0.000000 0.961544 0.000000
                CHANNELS 3 Zrotation Yrotation Xrotation
                JOINT Head
                {
                    OFFSET 0.000000 0.632542 -0.032565
                    CHANNELS 3 Zrotation Yrotation Xrotation
                    End Site
                    {
                        OFFSET -0.000001 0.439502 2.922845
                    }
                }
            }
            JOINT LeftCollar
            {
                OFFSET 0.167536 0.778237 -0.168280
                CHANNELS 3 Zrotation Yrotation Xrotation
                JOINT LeftShoulder
                {
                    OFFSET 0.831514 -0.002900 0.006458
                    CHANNELS 3 Zrotation Yrotation Xrotation
                    JOINT LeftElbow
                    {
                        OFFSET 2.272872 -0.026639 0.059314
                        CHANNELS 3 Zrotation Yrotation Xrotation
                        JOINT LeftWrist
                        {
                            OFFSET 2.081982 -0.024402 0.054333
                            CHANNELS 3 Zrotation Yrotation Xrotation
                            JOINT LeftHandThumb1
                            {
                                OFFSET 0.218903 -0.128645 0.283837
                                CHANNELS 3 Zrotation Yrotation Xrotation
                                JOINT LeftHandThumb2
                                {
                                    OFFSET 0.137157 -0.025101 0.077902
                                    CHANNELS 3 Zrotation Yrotation Xrotation
                                    JOINT LeftHandThumb3
                                    {
                                        OFFSET 0.167144 -0.063684 0.039325
                                        CHANNELS 3 Zrotation Yrotation Xrotation
                                        End Site
                                        {
                                            OFFSET 0.237999 -0.105215 0.064207
                                        }
                                    }
                                }
                            }
                            JOINT LeftHandFore1
                            {
                                OFFSET 0.767340 -0.016076 0.196678
                                CHANNELS 3 Zrotation Yrotation Xrotation
                                JOINT LeftHandFore2
                                {
                                    OFFSET 0.188823 -0.106331 -0.005918
                                    CHANNELS 3 Zrotation Yrotation Xrotation
                                    JOINT LeftHandFore3
                                    {
                                        OFFSET 0.091640 -0.091393 -0.003493
                                        CHANNELS 3 Zrotation Yrotation Xrotation
                                        End Site
                                        {
                                            OFFSET 0.139997 -0.132967 -0.009355
                                        }
                                    }
                                }
                            }
                            JOINT LeftHandMiddle1
                            {
                                OFFSET 0.709887 -0.008320 0.018526
                                CHANNELS 3 Zrotation Yrotation Xrotation
                                JOINT LeftHandMiddle2
                                {
                                    OFFSET 0.193358 -0.150584 0.000918
                                    CHANNELS 3 Zrotation Yrotation Xrotation
                                    JOINT LeftHandMiddle3
                                    {
                                        OFFSET 0.085226 -0.118820 0.001223
                                        CHANNELS 3 Zrotation Yrotation Xrotation
                                        End Site
                                        {
                                            OFFSET 0.133510 -0.194420 0.002523
                                        }
                                    }
                                }
                            }
                            JOINT LeftHandRing1
                            {
                                OFFSET 0.743817 -0.005823 -0.153668
                                CHANNELS 3 Zrotation Yrotation Xrotation
                                JOINT LeftHandRing2
                                {
                                    OFFSET 0.288025 -0.204250 0.007516
                                    CHANNELS 3 Zrotation Yrotation Xrotation
                                    JOINT LeftHandRing3
                                    {
                                        OFFSET 0.072555 -0.115317 0.006566
                                        CHANNELS 3 Zrotation Yrotation Xrotation
                                        End Site
                                        {
                                            OFFSET 0.058042 -0.104985 0.005391
                                        }
                                    }
                                }
                            }
                            JOINT LeftHandLittle1
                            {
                                OFFSET 0.689408 -0.053302 -0.308304
                                CHANNELS 3 Zrotation Yrotation Xrotation
                                JOINT LeftHandLittle2
                                {
                                    OFFSET 0.176579 -0.081319 0.016157
                                    CHANNELS 3 Zrotation Yrotation Xrotation
                                    JOINT LeftHandLittle3
                                    {
                                        OFFSET 0.084605 -0.085461 0.005901
                                        CHANNELS 3 Zrotation Yrotation Xrotation
                                        End Site
                                        {
                                            OFFSET 0.151722 -0.113546 0.019401
                                        }
                                    }
                                }
                            }
                        }
                    }
                }
            }
            JOINT RightCollar
            {
                OFFSET -0.167536 0.778237 -0.168280
                CHANNELS 3 Zrotation Yrotation Xrotation
                JOINT RightShoulder
                {
                    OFFSET -0.831514 -0.002900 0.006457
                    CHANNELS 3 Zrotation Yrotation Xrotation
                    JOINT RightElbow
                    {
                        OFFSET -2.272872 -0.026639 0.059313
                        CHANNELS 3 Zrotation Yrotation Xrotation
                        JOINT RightWrist
                        {
                            OFFSET -2.081982 -0.024402 0.054331
                            CHANNELS 3 Zrotation Yrotation Xrotation
                            JOINT RightHandThumb1
                            {
                                OFFSET -0.218911 -0.128571 0.283837
                                CHANNELS 3 Zrotation Yrotation Xrotation
                                JOINT RightHandThumb2
                                {
                                    OFFSET -0.137157 -0.025101 0.077902
                                    CHANNELS 3 Zrotation Yrotation Xrotation
                                    JOINT RightHandThumb3
                                    {
                                        OFFSET -0.144457 -0.112507 -0.003714
                                        CHANNELS 3 Zrotation Yrotation Xrotation
                                        End Site
                                        {
                                            OFFSET -0.071707 -0.241992 -0.090191
                                        }
                                    }
                                }
                            }
                            JOINT RightHandFore1
                            {
                                OFFSET -0.767344 -0.015991 0.196679
                                CHANNELS 3 Zrotation Yrotation Xrotation
                                JOINT RightHandFore2
                                {
                                    OFFSET -0.198556 -0.086768 -0.006610
                                    CHANNELS 3 Zrotation Yrotation Xrotation
                                    JOINT RightHandFore3
                                    {
                                        OFFSET -0.121831 -0.043685 -0.003294
                                        CHANNELS 3 Zrotation Yrotation Xrotation
                                        End Site
                                        {
                                            OFFSET -0.183422 -0.061016 -0.000547
                                        }
                                    }
                                }
                            }
                            JOINT RightHandMiddle1
                            {
                                OFFSET -0.709887 -0.008302 0.018525
                                CHANNELS 3 Zrotation Yrotation Xrotation
                                JOINT RightHandMiddle2
                                {
                                    OFFSET -0.224361 -0.098173 -0.009265
                                    CHANNELS 3 Zrotation Yrotation Xrotation
                                    JOINT RightHandMiddle3
                                    {
                                        OFFSET -0.145893 -0.009293 -0.003631
                                        CHANNELS 3 Zrotation Yrotation Xrotation
                                        End Site
                                        {
                                            OFFSET -0.234941 -0.019759 -0.006528
                                        }
                                    }
                                }
                            }
                            JOINT RightHandRing1
                            {
                                OFFSET -0.743819 -0.005785 -0.153669
                                CHANNELS 3 Zrotation Yrotation Xrotation
                                JOINT RightHandRing2
                                {
                                    OFFSET -0.323668 -0.141318 -0.001311
                                    CHANNELS 3 Zrotation Yrotation Xrotation
                                    JOINT RightHandRing3
                                    {
                                        OFFSET -0.131880 -0.034494 -0.004774
                                        CHANNELS 3 Zrotation Yrotation Xrotation
                                        End Site
                                        {
                                            OFFSET -0.114198 -0.036890 -0.004271
                                        }
                                    }
                                }
                            }
                            JOINT RightHandLittle1
                            {
                                OFFSET -0.689403 -0.053298 -0.308303
                                CHANNELS 3 Zrotation Yrotation Xrotation
                                JOINT RightHandLittle2
                                {
                                    OFFSET -0.190894 -0.032262 -0.023958
                                    CHANNELS 3 Zrotation Yrotation Xrotation
                                    JOINT RightHandLittle3
                                    {
                                        OFFSET -0.118328 -0.016597 -0.014784
                                        CHANNELS 3 Zrotation Yrotation Xrotation
                                        End Site
                                        {
                                            OFFSET -0.188035 0.002683 -0.030404
                                        }
                                    }
                                }
                            }
                        }
                    }
                }
            }
        }
    }
    JOINT LeftHip
    {
        OFFSET 0.685143 0.673822 -0.044491
        CHANNELS 3 Zrotation Yrotation Xrotation
        JOINT LeftKnee
        {
            OFFSET 0.085364 -3.750208 0.017676
            CHANNELS 3 Zrotation Yrotation Xrotation
            JOINT LeftAnkle
            {
                OFFSET 0.094583 -4.155206 0.019585
                CHANNELS 3 Zrotation Yrotation Xrotation
                JOINT LeftToe
                {
                    OFFSET -0.000000 -0.395925 0.621478
                    CHANNELS 3 Zrotation Yrotation Xrotation
                    End Site
                    {
                        OFFSET -0.000000 -0.077878 0.321152
                    }
                }
            }
        }
    }
    JOINT RightHip
    {
        OFFSET -0.685143 0.673822 -0.044492
        CHANNELS 3 Zrotation Yrotation Xrotation
        JOINT RightKnee
        {
            OFFSET -0.085364 -3.750208 0.017677
            CHANNELS 3 Zrotation Yrotation Xrotation
            JOINT RightAnkle
            {
                OFFSET -0.094583 -4.155206 0.019585
                CHANNELS 3 Zrotation Yrotation Xrotation
                JOINT RightToe
                {
                    OFFSET -0.000000 -0.395925 0.621478
                    CHANNELS 3 Zrotation Yrotation Xrotation
                    End Site
                    {
                        OFFSET -0.000000 -0.077878 0.321152
                    }
                }
            }
        }
    }
}
MOTION
Frames: 5
Frame Time: 0.033333
-4.529751 8.641834 6.857184 -179.419586 -26.981260 178.041458 9.294701 -8.671519 22.901649 0.138569 1.355350 0.184067 -4.764967 -6.309810 -0.789282 0.489184 -9.416103 0.491590 -3.869210 -3.635934 0.083602 -59.632164 10.108515 48.407532 178.511505 -35.003040 -179.537949 33.885990 10.397349 -19.461283 -0.000013 -0.000011 0.000009 5.137663 27.428167 4.956307 21.780771 26.980154 11.434857 9.089363 4.298344 -0.888129 2.859772 -0.093545 0.138970 -0.000009 0.000001 0.000001 13.301468 1.353121 0.111657 10.661087 0.080470 0.151344 -0.000002 -0.000004 0.000002 8.844449 -1.266943 -1.867223 17.176624 0.118262 -0.619068 -0.000002 -0.000001 0.000002 9.109183 3.011519 -1.804238 17.351393 1.091845 -3.487745 0.000000 -0.000000 -0.000004 1.453149 6.583672 -0.062567 48.514305 28.986984 13.536857 -177.993240 59.970272 -178.849304 -28.359007 13.584641 28.093260 -0.000002 -0.000009 0.000011 7.135486 5.567080 -2.670640 -6.811173 8.430606 -13.939862 16.411486 -3.533372 1.169678 42.197865 -2.676843 -0.520930 29.671841 -1.709569 -0.936639 20.938255 1.512108 -0.171038 50.608532 -1.440652 -1.814378 33.999741 -0.866508 -1.443240 23.804327 3.461309 -0.936562 40.091389 -1.064023 -0.693901 29.818727 -0.592674 -1.665471 29.426935 10.529341 -0.426558 26.838766 2.638029 -5.851754 33.121059 2.789638 -5.689465 7.438282 -7.835672 -19.141781 0.000001 -0.000000 0.000000 -1.452502 -2.814280 29.691666 0.000001 0.000005 -0.000001 3.759802 1.814140 -25.765554 -0.436811 -0.973907 48.315155 -4.121252 -19.347607 1.765085 0.000001 -0.000001 0.000017
-4.534742 8.643627 6.900069 -179.216705 -33.028164 177.920395 10.435877 -12.521943 22.738247 -0.382850 2.004543 -0.768914 -5.138357 -7.583570 0.555014 0.553376 -10.625020 2.876525 -5.498358 -6.911054 0.176043 -56.933659 5.217016 31.496092 178.187515 -54.139725 -179.080994 35.205551 3.183584 -15.138373 -0.000002 -0.000005 -0.000003 4.596702 31.064247 5.322791 19.445114 31.616755 15.648709 7.720685 4.451869 -0.818017 2.859774 -0.093545 0.138971 -0.000007 -0.000000 0.000000 12.564959 1.358124 0.095076 11.561357 0.084990 0.165152 0.000000 -0.000000 0.000000 8.848288 -1.546632 -2.013683 17.176628 0.118263 -0.619068 0.000000 -0.000000 0.000000 9.886183 3.864969 -1.677157 17.351397 1.091845 -3.487746 0.000005 -0.000000 -0.000000 0.676240 5.832327 -0.051459 43.469387 23.912197 0.189569 -178.052032 58.430222 -178.917908 -30.226170 18.778822 30.032370 -0.000013 0.000012 0.000020 7.835535 6.037345 -2.603732 -6.533718 11.483695 -16.825539 1.830261 -3.805959 -0.574575 23.859758 -1.499375 0.083005 8.474377 -0.522141 -0.215907 7.073573 1.163114 -0.611712 33.249165 -1.159362 -0.924755 9.711653 -0.302630 -0.394701 9.890586 3.604483 -0.393120 21.523102 -0.684548 -0.212185 8.517672 -0.223833 -0.456826 13.688127 10.736497 1.481179 10.872474 0.652714 -2.506787 9.490107 0.563902 -1.697661 11.474874 -11.812162 -19.083616 -0.000001 -0.000000 0.000001 5.817603 0.786384 24.787172 0.000003 0.000005 -0.000003 3.386151 0.277640 -17.149733 -0.200475 -0.694789 32.191933 -5.898773 -18.224442 0.218996 -0.017498 -0.075410 -0.568077
-4.535366 8.645365 6.937930 -179.068390 -39.581417 177.842041 11.765360 -15.360553 21.928911 -0.234975 2.417792 -1.585550 -5.564794 -9.014336 2.005280 0.660983 -12.629888 5.489835 -6.531291 -8.605275 0.255493 -52.091690 8.880928 13.060367 177.351547 -70.250381 -178.144058 37.415970 -8.972700 -11.475791 -0.000007 -0.000006 0.000004 4.218374 34.806431 5.783700 16.995874 36.641430 19.726631 6.309001 4.611142 -0.745519 2.859770 -0.093546 0.138972 -0.000005 0.000003 -0.000001 11.804904 1.358767 0.074286 12.792350 0.091447 0.183908 0.000000 0.000003 0.000000 8.853661 -1.835182 -2.164879 17.176620 0.118264 -0.619067 -0.000002 -0.000000 -0.000002 10.957041 5.047587 -1.496163 17.351387 1.091849 -3.487747 0.000003 -0.000000 0.000001 1.732973 5.675504 -0.102431 44.994133 10.855413 -10.817492 -177.522995 68.283295 -178.327499 -32.173519 23.785713 31.870070 0.000011 -0.000000 -0.000002 8.107013 6.219463 -2.579576 -7.315041 13.703324 -18.927500 -4.505925 -3.836523 -1.335117 16.530958 -0.972703 0.283307 -0.000001 -0.000142 -0.000053 0.328689 1.000535 -0.823578 26.101854 -0.984094 -0.557559 0.000010 -0.000000 -0.000002 2.857227 3.501895 -0.158874 14.096385 -0.526192 -0.035111 0.000002 0.000005 0.000003 6.433644 10.642074 2.234583 4.461852 0.006776 -1.101892 0.000007 0.000003 -0.000001 16.253069 -15.483353 -19.506609 -0.000001 -0.000000 0.000000 11.017149 5.495877 26.273533 -0.000002 -0.000009 -0.000010 3.035980 -7.074257 -5.802864 -0.022393 -0.240673 10.634077 -8.560701 -12.942553 4.599336 -0.097718 -0.691174 -5.583581
-4.534719 8.647087 6.969383 -179.010834 -44.977444 177.814148 12.870747 -16.511875 20.959078 0.378708 2.537644 -2.178718 -6.034763 -10.190166 3.343946 0.775153 -14.723117 7.933630 -7.436904 -9.351707 0.304590 -51.979439 6.895590 -2.076121 29.390587 -88.666939 -30.058796 39.920746 -15.174182 -2.608329 0.000002 -0.000009 0.000003 4.048233 38.303276 6.320463 14.647660 41.631271 23.264420 4.984631 4.761417 -0.677307 2.859774 -0.093545 0.138971 -0.000007 -0.000002 -0.000002 11.091480 1.355392 0.051565 14.133560 0.098850 0.204191 0.000000 -0.000003 0.000000 8.859870 -2.105967 -2.306812 17.176624 0.118265 -0.619069 -0.000002 0.000002 0.000000 12.135865 6.362908 -1.286041 17.351395 1.091849 -3.487744 0.000002 -0.000000 -0.000002 2.414487 5.143373 -0.134039 41.767452 2.735273 -20.255415 -174.864639 81.387985 -175.590363 -34.332218 28.082386 33.256107 -0.000002 0.000002 -0.000005 7.078977 7.236083 -3.252438 -10.796636 14.640326 -20.724533 -5.430205 -3.196771 -1.574707 16.688421 -0.979724 0.292157 0.000002 -0.000149 -0.000050 -1.887006 1.157550 -0.938734 25.721750 -0.971593 -0.544741 0.000003 -0.000002 0.000002 0.146378 3.070966 -0.127236 14.702086 -0.548356 -0.040483 0.000000 0.000002 0.000001 4.659480 9.856045 2.231344 5.288958 0.025946 -1.307794 0.000000 0.000002 0.000000 18.574171 -17.124716 -19.365137 0.000001 -0.000002 -0.000001 12.025865 11.175873 28.796461 -0.000005 -0.000031 -0.000002 2.639437 -11.795614 -0.188072 -0.000000 -0.000005 -0.000000 -9.073856 -11.695580 6.729940 -0.073873 -0.415245 -3.543318
-4.560461 8.649020 7.023145 179.079239 -44.158421 178.953690 12.062888 -12.841555 21.718195 0.184712 1.988099 -2.911994 -6.518281 -10.344125 4.556650 0.841596 -15.923362 10.219306 -7.698224 -8.325219 0.244016 -50.236137 7.615738 -8.537800 3.016959 -79.561790 -3.630488 39.108479 -6.832538 -18.555695 -0.000007 -0.000000 0.000003 4.061020 41.210705 6.870006 12.459507 46.038235 25.855667 3.877669 4.887658 -0.620186 2.859772 -0.093549 0.138976 -0.000005 0.000001 -0.000003 10.494842 1.348264 0.029088 15.364536 0.105978 0.222675 -0.000003 -0.000001 0.000003 8.865884 -2.332342 -2.425558 17.176620 0.118265 -0.619068 0.000001 -0.000005 -0.000002 13.230872 7.614099 -1.071813 17.351395 1.091846 -3.487741 0.000002 0.000003 -0.000005 3.401442 4.967453 -0.142419 38.644032 -0.879731 -25.021965 -3.502460 80.785400 -4.123227 -36.410263 31.231880 34.050945 0.000002 0.000002 -0.000005 4.463535 9.729372 -5.055075 -17.426544 14.248911 -23.063942 -6.478816 -1.861493 -2.021108 17.103022 -1.004672 0.297364 -0.000002 -0.000142 -0.000053 -4.427481 1.549789 -1.146922 25.285990 -0.957228 -0.531329 0.000004 -0.000000 -0.000001 -2.960142 2.332567 -0.103027 16.245323 -0.604717 -0.054575 -0.000002 0.000002 -0.000000 2.623385 8.250609 2.225655 7.391435 0.081730 -1.829058 0.000003 -0.000003 -0.000001 18.046139 -12.426762 -17.959850 0.000000 -0.000002 -0.000001 10.983562 10.363863 32.928829 0.000003 0.000022 0.000009 0.892361 -11.584338 -0.226601 -0.000000 -0.000002 -0.000000 -8.606119 -11.084356 3.967824 -0.001712 -0.007088 -0.063698
